# xmcd CD database file
#
# Track frame offsets:
#	150
#	23842
#	48892
#	63142
#
# Disc length: 1027 seconds
#
# Revision: 2
# Processed by: cddbd v1.5.1PL0 Copyright (c) Steve Scherf et al.
# Submitted via: CDex 1.51
#
DISCID=26040104
DTITLE=Aretha Franklin - Think (Remix 91) (Maxi)
DYEAR=1991
DGENRE=Rhythmic Soul
TTITLE0=Think (Remix '91)
TTITLE1=Think (Classic Mix)
TTITLE2=Tink (Radio Edit, Remix '91)
TTITLE3=Think (E. P Stylistic)
EXTD=YEAR: 1991
EXTT0=
EXTT1=
EXTT2=
EXTT3=
PLAYORDER=
